<svg xmlns="http://www.w3.org/2000/svg" width="560" height="560" preserveAspectRatio="xMidYMid meet" version="1.0" viewBox="0 0 420 420"><metadata>Created by potrace 1.14, written by Peter Selinger 2001-2017</metadata><g fill="#000" stroke="none"><path d="M2005 3458 c-113 -14 -182 -28 -241 -47 -77 -25 -146 -52 -162 -66 -57 -43 -112 -101 -128 -132 -23 -46 -32 -53 -64 -51 -54 4 -170 -53 -223 -109 -26 -28 -57 -69 -57 -77 0 -5 -7 -17 -15 -26 -15 -16 -67 -150 -59 -150 3 0 0 -8 -5 -17 -9 -18 -15 -45 -28 -138 -15 -101 -7 -419 12 -495 2 -8 7 -35 10 -60 4 -24 9 -48 11 -52 3 -5 -4 -8 -15 -8 -26 0 -67 -38 -81 -76 -24 -62 -1 -239 45 -350 7 -18 11 -34 9 -37 -2 -2 2 -17 11 -33 8 -16 15 -32 15 -36 0 -5 -29 -8 -64 -8 -56 0 -67 -3 -91 -27 l-27 -28 6 -160 c3 -88 9 -198 12 -245 3 -47 7 -119 9 -160 9 -204 18 -377 20 -390 2 -17 -23 -61 -42 -73 -7 -4 -13 -15 -13 -22 0 -8 -4 -15 -10 -15 -5 0 -10 -7 -10 -15 0 -8 -3 -15 -7 -15 -9 0 -57 -82 -85 -142 -9 -21 -15 -38 -12 -38 3 0 0 -8 -5 -18 -10 -19 -18 -51 -26 -110 l-5 -32 1391 0 1391 0 -7 46 c-12 89 -97 272 -158 341 -25 28 -25 22 -2 453 2 30 6 127 10 215 4 88 9 168 10 177 4 17 7 132 6 181 -1 17 -12 38 -27 52 -22 21 -37 25 -85 25 -33 0 -59 1 -59 3 0 1 11 33 25 70 13 37 24 71 25 75 0 4 6 25 12 47 6 22 13 47 15 55 9 34 15 162 9 193 -6 35 -37 75 -70 94 -14 8 -16 16 -7 54 8 40 17 109 27 229 7 75 6 257 -1 302 -36 239 -116 403 -278 571 -38 39 -122 107 -133 107 -3 0 -21 12 -40 26 -19 15 -34 23 -34 19 0 -5 -9 0 -20 10 -11 10 -20 15 -20 11 0 -3 -10 0 -22 8 -18 11 -75 33 -108 41 -3 1 -12 4 -20 8 -30 12 -89 28 -117 33 -15 2 -39 7 -53 10 -38 10 -277 11 -345 2z" transform="translate(0.000000,420.000000) scale(0.100000,-0.100000)"/></g></svg>